<svg width="35" height="39" viewBox="0 0 35 39" fill="none" xmlns="http://www.w3.org/2000/svg">
<g filter="url(#filter0_d_12_3305)">
<path d="M23.3188 28.5974L23.326 28.5947L23.3332 28.592C24.0279 28.3369 24.5804 27.9344 24.9508 27.4671C25.3156 27.0066 25.4911 26.5021 25.5 26.0136V4.98933C25.4911 4.50079 25.3157 3.99627 24.9508 3.53587C24.5804 3.06847 24.0279 2.66606 23.3332 2.41088L23.317 2.40494L23.301 2.39863C22.461 2.06797 21.5127 1.93641 20.5704 2.0288C19.6315 2.12086 18.7637 2.42865 18.0623 2.89489L2.77344 13.4126L2.76306 13.4197L2.75255 13.4267C2.32916 13.7076 2.01211 14.0479 1.80432 14.4071C1.59779 14.7642 1.5 15.1371 1.5 15.5015C1.5 15.8658 1.59779 16.2388 1.80432 16.5958C2.01211 16.955 2.32916 17.2953 2.75255 17.5762L2.76305 17.5832L2.77344 17.5903L18.066 28.1105C18.9019 28.674 19.9787 29.0006 21.1163 29C21.8831 28.9959 22.6343 28.8568 23.3188 28.5974Z" fill="#EF6E69" stroke="white" stroke-width="3"/>
<path d="M17.7201 8.92704C17.1732 8.95938 15.8447 10.0513 15.8447 10.0513C15.8447 10.0513 17.3372 11.0185 17.8841 10.9862C18.431 10.9539 18.8268 10.5082 18.792 9.91919C18.7572 9.33015 18.267 8.8947 17.7201 8.92704ZM19.9637 14.0298C19.4168 14.0622 18.0883 15.154 18.0883 15.154C18.0883 15.154 19.5808 16.1213 20.1277 16.089C20.6746 16.0566 21.0704 15.611 21.0356 15.022C21.0008 14.4329 20.5106 13.9975 19.9637 14.0298ZM15.2852 17.7264C14.7383 17.7588 13.4098 18.8506 13.4098 18.8506C13.4098 18.8506 14.9023 19.8179 15.4492 19.7856C15.9961 19.7532 16.3919 19.3076 16.3571 18.7186C16.3223 18.1295 15.8321 17.6941 15.2852 17.7264ZM20.1168 20.9029C19.5699 20.9352 18.2413 22.0271 18.2413 22.0271C18.2413 22.0271 19.7338 22.9944 20.2807 22.962C20.8276 22.9297 21.2234 22.4841 21.1886 21.895C21.1117 21.3085 20.6637 20.8705 20.1168 20.9029ZM10.5946 14.0772C10.0477 14.1095 8.71914 15.2014 8.71914 15.2014C8.71914 15.2014 10.2092 16.1266 10.7561 16.0943C11.303 16.0619 11.6988 15.6163 11.664 15.0273C11.5896 14.4828 11.1415 14.0449 10.5946 14.0772Z" fill="#3E4347"/>
</g>
<defs>
<filter id="filter0_d_12_3305" x="0" y="0.5" width="35" height="38" filterUnits="userSpaceOnUse" color-interpolation-filters="sRGB">
<feFlood flood-opacity="0" result="BackgroundImageFix"/>
<feColorMatrix in="SourceAlpha" type="matrix" values="0 0 0 0 0 0 0 0 0 0 0 0 0 0 0 0 0 0 127 0" result="hardAlpha"/>
<feOffset dx="4" dy="4"/>
<feGaussianBlur stdDeviation="2"/>
<feComposite in2="hardAlpha" operator="out"/>
<feColorMatrix type="matrix" values="0 0 0 0 0 0 0 0 0 0 0 0 0 0 0 0 0 0 0.25 0"/>
<feBlend mode="normal" in2="BackgroundImageFix" result="effect1_dropShadow_12_3305"/>
<feBlend mode="normal" in="SourceGraphic" in2="effect1_dropShadow_12_3305" result="shape"/>
</filter>
</defs>
</svg>
