<svg width="85" height="85" viewBox="0 0 85 85" fill="none" xmlns="http://www.w3.org/2000/svg">
<g filter="url(#filter0_d_12_4685)">
<circle cx="42.5" cy="38.5" r="38.5" fill="white"/>
<path d="M39.3199 26.8357H46.2541M30.6754 59.195H54.8986C61.278 59.195 63.8206 55.2888 64.121 50.5274L65.323 31.4354C65.3979 30.2515 65.2292 29.065 64.8274 27.9489C64.4255 26.8329 63.7991 25.8111 62.9867 24.9467C62.1743 24.0824 61.1933 23.3938 60.1043 22.9236C59.0153 22.4534 57.8415 22.2115 56.6553 22.213C55.2453 22.213 53.951 21.404 53.3038 20.1558L51.6396 16.8043C50.5764 14.701 47.8027 12.9674 45.4451 12.9674H40.152C37.7713 12.9674 34.9977 14.701 33.9344 16.8043L32.2702 20.1558C31.623 21.404 30.3287 22.213 28.9187 22.213C23.903 22.213 19.9275 26.4428 20.251 31.4354L21.453 50.5274C21.7303 55.2888 24.296 59.195 30.6754 59.195Z" stroke="#F19D98" stroke-width="4" stroke-linecap="round" stroke-linejoin="round"/>
<path d="M42.5 49.8844C46.6373 49.8844 50.0119 46.5098 50.0119 42.3724C50.0119 38.2351 46.6373 34.8604 42.5 34.8604C38.3626 34.8604 34.988 38.2351 34.988 42.3724C34.988 46.5098 38.3626 49.8844 42.5 49.8844Z" stroke="#F19D98" stroke-width="4" stroke-linecap="round" stroke-linejoin="round"/>
</g>
<defs>
<filter id="filter0_d_12_4685" x="0" y="0" width="85" height="85" filterUnits="userSpaceOnUse" color-interpolation-filters="sRGB">
<feFlood flood-opacity="0" result="BackgroundImageFix"/>
<feColorMatrix in="SourceAlpha" type="matrix" values="0 0 0 0 0 0 0 0 0 0 0 0 0 0 0 0 0 0 127 0" result="hardAlpha"/>
<feOffset dy="4"/>
<feGaussianBlur stdDeviation="2"/>
<feComposite in2="hardAlpha" operator="out"/>
<feColorMatrix type="matrix" values="0 0 0 0 0 0 0 0 0 0 0 0 0 0 0 0 0 0 0.25 0"/>
<feBlend mode="normal" in2="BackgroundImageFix" result="effect1_dropShadow_12_4685"/>
<feBlend mode="normal" in="SourceGraphic" in2="effect1_dropShadow_12_4685" result="shape"/>
</filter>
</defs>
</svg>
