<svg width="24" height="23" viewBox="0 0 24 23" fill="none" xmlns="http://www.w3.org/2000/svg">
<path d="M22 21.5L20 19.5M11.5 20.5C12.7476 20.5 13.9829 20.2543 15.1355 19.7769C16.2881 19.2994 17.3354 18.5997 18.2175 17.7175C19.0997 16.8354 19.7994 15.7881 20.2769 14.6355C20.7543 13.4829 21 12.2476 21 11C21 9.75244 20.7543 8.5171 20.2769 7.36451C19.7994 6.21191 19.0997 5.16464 18.2175 4.28249C17.3354 3.40033 16.2881 2.70056 15.1355 2.22314C13.9829 1.74572 12.7476 1.5 11.5 1.5C8.98044 1.5 6.56408 2.50089 4.78249 4.28249C3.00089 6.06408 2 8.48044 2 11C2 13.5196 3.00089 15.9359 4.78249 17.7175C6.56408 19.4991 8.98044 20.5 11.5 20.5Z" stroke="#F19D98" stroke-width="3" stroke-linecap="round" stroke-linejoin="round"/>
</svg>
