<svg width="85" height="85" viewBox="0 0 85 85" fill="none" xmlns="http://www.w3.org/2000/svg">
<g filter="url(#filter0_d_12_4692)">
<circle cx="42.5" cy="38.5" r="38.5" fill="white"/>
<path d="M58 54L54.9 50.9M41.725 52.45C43.6587 52.45 45.5735 52.0691 47.36 51.3291C49.1465 50.5891 50.7698 49.5045 52.1371 48.1371C53.5045 46.7698 54.5891 45.1465 55.3291 43.36C56.0691 41.5735 56.45 39.6587 56.45 37.725C56.45 35.7913 56.0691 33.8765 55.3291 32.09C54.5891 30.3035 53.5045 28.6802 52.1371 27.3129C50.7698 25.9455 49.1465 24.8609 47.36 24.1209C45.5735 23.3809 43.6587 23 41.725 23C37.8197 23 34.0743 24.5514 31.3129 27.3129C28.5514 30.0743 27 33.8197 27 37.725C27 41.6303 28.5514 45.3757 31.3129 48.1371C34.0743 50.8986 37.8197 52.45 41.725 52.45Z" stroke="#F19D98" stroke-width="3" stroke-linecap="round" stroke-linejoin="round"/>
</g>
<defs>
<filter id="filter0_d_12_4692" x="0" y="0" width="85" height="85" filterUnits="userSpaceOnUse" color-interpolation-filters="sRGB">
<feFlood flood-opacity="0" result="BackgroundImageFix"/>
<feColorMatrix in="SourceAlpha" type="matrix" values="0 0 0 0 0 0 0 0 0 0 0 0 0 0 0 0 0 0 127 0" result="hardAlpha"/>
<feOffset dy="4"/>
<feGaussianBlur stdDeviation="2"/>
<feComposite in2="hardAlpha" operator="out"/>
<feColorMatrix type="matrix" values="0 0 0 0 0 0 0 0 0 0 0 0 0 0 0 0 0 0 0.25 0"/>
<feBlend mode="normal" in2="BackgroundImageFix" result="effect1_dropShadow_12_4692"/>
<feBlend mode="normal" in="SourceGraphic" in2="effect1_dropShadow_12_4692" result="shape"/>
</filter>
</defs>
</svg>
